<?xml version="1.0" encoding="utf-8"?>
<!-- Generator: Adobe Illustrator 16.2.1, SVG Export Plug-In . SVG Version: 6.00 Build 0)  -->
<!DOCTYPE svg PUBLIC "-//W3C//DTD SVG 1.1//EN" "http://www.w3.org/Graphics/SVG/1.1/DTD/svg11.dtd">
<svg version="1.1" id="Ebene_1" xmlns="http://www.w3.org/2000/svg" xmlns:xlink="http://www.w3.org/1999/xlink" x="0px" y="0px"
	 width="54px" height="86px" viewBox="0.25 0 54 86" enable-background="new 0.25 0 54 86" xml:space="preserve">
<g>
	<polygon fill="#F8D100" points="41.206,85.838 46.173,85.838 46.173,57.8 41.206,57.8 	"/>
	<polygon fill="#E3001B" points="41.206,57.8 46.173,57.8 46.173,29.664 41.206,29.664 	"/>
	<polygon points="41.206,29.763 46.173,29.763 46.173,1.725 41.206,1.725 	"/>
	<path d="M19.499,9.089c0.125,0.008,0.246,0.016,0.372,0.016c2.213,0,4.412-1.433,4.412-3.27c0-0.979-0.44-1.663-0.984-2.421
		c-0.32,0.053-0.611,0.083-0.84,0.083c-1.002,0-1.548-0.537-1.587-1.065c0-0.477,0.387-0.835,0.987-0.835
		c0.932,0,2.63,0.872,4.342,0.872c-0.168,0.127-0.449,0.262-0.787,0.388c1.004,0.903,1.674,2.113,1.929,3.407l2.623,4.197
		c0.44,0.701,1.371,2.079,2.774,3.154c-1.696,0-2.822,0.039-4.256-2.229l-1.343-2.15c-0.1,0.277-0.223,0.549-0.366,0.814l2.672,4.28
		c0.446,0.708,1.366,2.075,2.776,3.156c-1.697,0-2.819,0.041-4.255-2.229l-2.302-3.685c-0.173,0.183-0.354,0.362-0.545,0.535
		l3.248,5.197c0.447,0.712,1.364,2.072,2.776,3.154c-1.698,0-2.822,0.041-4.257-2.23l-3.165-5.065
		c-0.21,0.132-0.423,0.258-0.642,0.38l3.862,6.183c0.446,0.71,1.363,2.072,2.776,3.154c-1.696,0-2.824,0.041-4.255-2.23
		l-3.979-6.366c-0.235,0.091-0.475,0.177-0.718,0.254l4.496,7.197c0.437,0.697,1.378,2.081,2.773,3.153
		c-1.695,0-2.821,0.04-4.253-2.23l-4.792-7.67l-0.147,0.026c-0.129,0.415-0.22,0.802-0.22,1.189c0,2.409,1.582,4.537,3.479,6.18
		c-0.122,0.052-0.333,0.073-0.528,0.073c-0.391,0-0.645-0.024-0.823-0.053c0.441,1,1.385,2.289,1.862,2.958
		c0.622-0.111,1.526-0.199,2.117-0.199c0.62,0,0.688,0.363,0.688,0.687c0,0.561-0.264,1.012-0.568,1.262
		c-0.115-0.29-0.346-0.674-1.49-0.674l-0.117,0.005c0.337,0.373,1.382,1.22,1.382,1.902c0,0.45-0.495,1.127-1.148,1.127
		c0.041-0.146,0.034-0.281,0.034-0.38c0-0.552-0.488-1.197-0.901-1.649c0.011,0.135,0.005,0.121,0.005,0.276
		c0,1.305-0.116,1.905-0.946,1.905c-0.406,0-0.687-0.223-0.784-0.289c0.538-0.498,0.568-0.887,0.568-1.618l-0.005-0.635
		c-0.001-0.167,0.001-0.387,0.026-0.548c-0.297-0.042-0.415-0.041-0.644-0.041c0,0-1.179-0.093-1.462,0.52
		c-0.318-0.292-0.781-0.705-0.781-1.165c0-0.301,0.142-0.642,0.746-0.642c0.229,0,0.953,0.142,1.558,0.142
		c-0.161-0.362-0.886-1.419-1.51-2.187c-0.095,0.297-0.244,0.621-0.573,0.883c-0.045-0.495-0.334-2.052-1.105-2.964
		c-0.09,0.616-0.212,1.248-0.212,2.58c0,3.244,0.781,5.64,2.437,6.099c-0.216,0.377-0.67,0.712-1.144,0.712
		c-0.605,0-0.935-0.686-1.271-1.332c-0.175,0.478-0.659,1.646-1.146,1.646c-0.485,0-0.969-1.168-1.143-1.646
		c-0.338,0.646-0.667,1.332-1.274,1.332c-0.471,0-0.928-0.335-1.141-0.712c1.654-0.459,2.435-2.854,2.435-6.099
		c0-1.332-0.122-1.964-0.211-2.58c-0.771,0.912-1.062,2.469-1.106,2.964c-0.328-0.262-0.477-0.586-0.572-0.883
		c-0.625,0.768-1.347,1.825-1.511,2.187c0.607,0,1.328-0.142,1.558-0.142c0.606,0,0.75,0.341,0.75,0.642
		c0,0.46-0.466,0.874-0.784,1.165c-0.285-0.613-1.461-0.52-1.461-0.52c-0.23,0-0.348-0.001-0.645,0.041
		c0.025,0.161,0.031,0.381,0.027,0.548l-0.004,0.635c0,0.73,0.028,1.12,0.566,1.618c-0.095,0.066-0.377,0.289-0.783,0.289
		c-0.829,0-0.948-0.6-0.948-1.905c0-0.156-0.004-0.142,0.007-0.276c-0.414,0.452-0.901,1.097-0.901,1.649
		c0,0.099-0.007,0.234,0.032,0.38c-0.65,0-1.146-0.677-1.146-1.127c0-0.683,1.047-1.529,1.381-1.902l-0.115-0.005
		c-1.144,0-1.377,0.384-1.49,0.674c-0.306-0.25-0.568-0.701-0.568-1.262c0-0.324,0.069-0.687,0.688-0.687
		c0.593,0,1.496,0.088,2.117,0.199c0.475-0.669,1.42-1.958,1.862-2.958c-0.178,0.029-0.431,0.053-0.822,0.053
		c-0.196,0-0.409-0.021-0.528-0.073c1.897-1.643,3.477-3.771,3.477-6.18c0-0.387-0.088-0.774-0.22-1.189l-0.144-0.026l-4.792,7.67
		c-1.434,2.27-2.56,2.23-4.254,2.23c1.396-1.072,2.334-2.456,2.771-3.153l4.497-7.197c-0.242-0.077-0.481-0.163-0.718-0.254
		l-3.977,6.366c-1.434,2.271-2.562,2.23-4.255,2.23c1.412-1.083,2.327-2.444,2.773-3.154l3.865-6.183
		c-0.222-0.122-0.435-0.248-0.644-0.38L5.85,18.227c-1.434,2.271-2.559,2.23-4.255,2.23c1.411-1.082,2.329-2.442,2.774-3.154
		l3.247-5.197c-0.191-0.172-0.373-0.352-0.544-0.535l-2.3,3.685c-1.436,2.27-2.56,2.229-4.256,2.229
		c1.409-1.081,2.33-2.448,2.775-3.156l2.672-4.28C5.822,9.784,5.699,9.512,5.599,9.235l-1.344,2.15
		C2.82,13.653,1.695,13.614,0,13.614c1.403-1.075,2.333-2.454,2.774-3.154l2.622-4.197c0.255-1.294,0.925-2.504,1.929-3.407
		C6.988,2.73,6.708,2.595,6.539,2.468c1.711,0,3.409-0.871,4.34-0.871c0.603,0,0.987,0.357,0.987,0.834
		c-0.038,0.528-0.583,1.065-1.587,1.065c-0.227,0-0.519-0.029-0.838-0.083C8.898,4.172,8.458,4.856,8.458,5.835
		c0,1.836,2.196,3.27,4.414,3.27c0.123,0,0.244-0.007,0.368-0.016c0.439-1.487,1.374-2.463,2.12-3.418
		c-0.895-0.325-1.893-1.175-1.893-1.56c0.113-0.066,1.828,0.472,2.006,0.521c0.037,0.01,0.073,0.011,0.115,0
		c0.208-0.063,0.382-0.369,0.382-0.399c-0.184-0.03-1.259-0.17-1.995-0.438c-0.558-0.205-0.841-0.575-0.841-0.715
		c0.178-0.029,0.859,0.329,1.859,0.329c0.369,0,0.441-0.016,0.808-0.061c-0.258-0.614-0.742-1.133-1.287-1.133
		c-0.219,0-0.698,0.138-1.099,0.338c-0.279-0.433-0.524-1.003-0.524-1.316c0-0.367,0.363-0.799,1.389-0.799
		c0.287,0,0.555,0.025,0.805,0.072c0.201,0.038,0.369,0.083,0.549,0.154c-0.014-0.025-0.022-0.08-0.022-0.13
		c0-0.142,0.128-0.292,0.611-0.292c0.844,0,1.71,0.278,2.771,0.278c0.275,0,0.461-0.01,0.621-0.077
		c-0.069,0.212-0.367,0.523-0.641,0.777c0.168,0.23,0.608,0.787,0.608,1.685c0,1.445-0.953,2.637-0.953,4.098
		C18.63,7.868,19.298,8.633,19.499,9.089L19.499,9.089z M16.952,2.201c0.787,0.153,1.324-0.852,0.575-1.032
		c0.104,0.333-0.399,0.566-0.399,0.566s-0.192-0.444,0.058-0.698c-0.458-0.223-0.574,0.049-0.583,0.331
		C16.782,1.61,16.898,1.89,16.952,2.201L16.952,2.201z M16.29,3.752c0.146-0.335,0.342-0.733,0.342-1.172
		c0-1.213-1.006-1.791-2.352-1.791c-0.691,0-1.041,0.223-1.041,0.447s0.229,0.718,0.317,0.869c0.248-0.111,0.698-0.241,0.958-0.241
		C15.439,1.865,16.129,2.899,16.29,3.752L16.29,3.752z M7.691,5.905c0-1.176,0.767-2.065,1.2-2.596L8.599,3.242
		c-0.412,0.356-1.571,1.62-1.571,3.217c0,2.797,2.813,5.393,6.015,5.414c-0.035-0.304-0.054-0.627-0.054-0.972
		c0-0.216,0.008-0.427,0.028-0.625C10.188,10.276,7.691,8.243,7.691,5.905L7.691,5.905z M13.259,22.818
		c-0.093-0.34-0.182-0.588-0.537-0.588c-0.184,0-0.269,0.033-0.375,0.072c-0.386,1.064-1.86,3.06-2.093,3.369
		c-0.635-0.105-1.527-0.216-2.246-0.216c-0.17,0-0.402-0.015-0.402,0.391c0,0.233,0.104,0.644,0.231,0.781
		c0.317-0.375,0.865-0.488,1.541-0.488c0.264,0,0.582,0.092,0.701,0.121c-0.861,0.874-1.672,1.597-1.672,2.082
		c0,0.27,0.28,0.627,0.516,0.748c0-0.714,0.739-1.699,1.462-2.251c0,0.097,0.034,0.472,0.034,0.879c0,1.346,0.133,1.611,0.651,1.611
		c0.095,0,0.255-0.034,0.316-0.07c-0.279-0.319-0.396-0.744-0.396-1.542c0-0.23,0.01-0.447,0.01-0.635
		c0-0.354-0.042-0.605-0.069-0.8c0.196-0.027,0.647-0.091,0.979-0.091c0.704,0,1.141,0.067,1.461,0.385
		c0.228-0.174,0.482-0.502,0.482-0.728c0-0.324-0.217-0.346-0.448-0.346c-0.358,0-0.649,0.142-2.003,0.142
		C11.665,24.878,12.446,23.805,13.259,22.818L13.259,22.818z M21.34,25.641c-1.354,0-1.647-0.142-2.005-0.142
		c-0.229,0-0.446,0.022-0.446,0.346c0,0.226,0.252,0.554,0.481,0.728c0.318-0.318,0.755-0.385,1.462-0.385
		c0.33,0,0.779,0.064,0.979,0.091c-0.028,0.195-0.067,0.446-0.067,0.8c0,0.188,0.007,0.405,0.007,0.635
		c0,0.798-0.118,1.223-0.397,1.542c0.061,0.037,0.222,0.07,0.317,0.07c0.519,0,0.651-0.265,0.651-1.611
		c0-0.407,0.033-0.782,0.033-0.879c0.724,0.552,1.462,1.538,1.462,2.251c0.237-0.121,0.514-0.478,0.514-0.748
		c0-0.485-0.812-1.208-1.672-2.082c0.12-0.028,0.439-0.121,0.703-0.121c0.676,0,1.224,0.113,1.542,0.488
		c0.125-0.137,0.23-0.548,0.23-0.781c0-0.406-0.233-0.391-0.402-0.391c-0.719,0-1.609,0.111-2.248,0.216
		c-0.231-0.309-1.706-2.305-2.089-3.369c-0.11-0.039-0.196-0.072-0.377-0.072c-0.354,0-0.447,0.248-0.54,0.588
		C20.292,23.805,21.075,24.878,21.34,25.641L21.34,25.641z M25.712,6.459c0-1.597-1.163-2.861-1.57-3.217l-0.294,0.067
		c0.435,0.531,1.202,1.42,1.202,2.596c0,2.316-2.45,4.33-5.243,4.368c0.021,0.238,0.02,0.447,0.02,0.628
		c0,0.331-0.021,0.656-0.06,0.97C22.937,11.814,25.712,9.236,25.712,6.459L25.712,6.459z"/>
</g>
</svg>
